<?xml version="1.0" standalone="no"?>
<!DOCTYPE svg PUBLIC "-//W3C//DTD SVG 20010904//EN"
 "http://www.w3.org/TR/2001/REC-SVG-20010904/DTD/svg10.dtd">
<svg version="1.0" xmlns="http://www.w3.org/2000/svg"
 width="165.000000pt" height="144.000000pt" viewBox="0 0 165.000000 144.000000"
 preserveAspectRatio="xMidYMid meet">

<g transform="translate(0.000000,144.000000) scale(0.100000,-0.100000)"
fill="#000000" stroke="none">
<path d="M125 1380 c-37 -15 -67 -57 -72 -102 -4 -35 0 -50 21 -80 21 -32 350
-432 523 -636 l53 -64 0 -148 c0 -126 3 -151 18 -168 9 -12 64 -57 121 -102
90 -69 110 -80 143 -80 98 0 108 26 108 290 l0 211 187 226 c453 545 434 516
396 590 -39 76 -3 73 -783 72 -382 0 -704 -4 -715 -9z m1421 -104 c5 -13 -169
-231 -498 -625 l-97 -116 -1 -223 c0 -192 -2 -223 -15 -220 -8 2 -55 35 -105
73 l-90 70 0 145 0 145 -131 160 c-72 88 -199 243 -282 344 -196 237 -190 229
-183 246 8 22 1394 23 1402 1z"/>
</g>
</svg>
