<?xml version="1.0" standalone="no"?>
<!DOCTYPE svg PUBLIC "-//W3C//DTD SVG 20010904//EN"
 "http://www.w3.org/TR/2001/REC-SVG-20010904/DTD/svg10.dtd">
<svg version="1.0" xmlns="http://www.w3.org/2000/svg"
 width="165.000000pt" height="174.000000pt" viewBox="0 0 165.000000 174.000000"
 preserveAspectRatio="xMidYMid meet">

<g transform="translate(0.000000,174.000000) scale(0.100000,-0.100000)"
fill="#000000" stroke="none">
<path d="M732 1639 c-257 -31 -490 -197 -606 -434 -58 -116 -76 -185 -83 -315
-12 -228 67 -436 229 -599 155 -157 333 -232 553 -233 141 -1 231 20 360 82
202 97 357 286 417 509 16 58 21 106 21 201 0 154 -22 242 -90 374 -38 73 -67
110 -143 187 -85 86 -107 102 -200 147 -153 73 -303 100 -458 81z m327 -124
c278 -94 481 -374 481 -665 0 -165 -74 -351 -188 -472 -136 -144 -291 -217
-483 -226 -132 -6 -231 14 -344 68 -177 85 -301 229 -367 426 -20 59 -23 89
-23 204 0 122 3 143 28 216 81 237 262 405 502 466 109 28 284 20 394 -17z"/>
<path d="M789 1202 c-47 -39 -16 -122 47 -122 33 0 64 34 64 70 0 60 -64 90
-111 52z"/>
<path d="M680 930 c-11 -11 -20 -24 -20 -30 0 -26 41 -50 85 -50 l45 0 0 -150
0 -150 -59 0 c-63 0 -91 -15 -91 -50 0 -44 22 -50 191 -50 146 0 161 2 179 20
11 11 20 24 20 30 0 6 -9 19 -20 30 -15 15 -33 20 -75 20 l-55 0 0 184 c0 180
-1 185 -22 200 -35 25 -152 22 -178 -4z"/>
</g>
</svg>
